#define noname_width 38
#define noname_height 31
static char noname_bits[] = {
 0x00,0x40,0x03,0x00,0x00,0x00,0x20,0x0c,0x00,0x00,0x00,0x10,0x30,0x00,0x00,
 0x00,0x08,0xc0,0x00,0x00,0x00,0x3c,0x00,0x03,0x00,0x00,0xf6,0x00,0x0c,0x00,
 0x00,0xc3,0x03,0x30,0x00,0x80,0x01,0x03,0xc0,0x00,0xc0,0x87,0x01,0x00,0x03,
 0xe0,0xdf,0x00,0x00,0x06,0xf0,0x7f,0x00,0x00,0x07,0xe8,0x3f,0x00,0x80,0x03,
 0x84,0x1f,0x00,0xc0,0x01,0x02,0x0e,0x00,0xe0,0x01,0x01,0x00,0x00,0xb0,0x01,
 0x01,0x00,0x00,0x18,0x01,0x03,0x00,0x00,0x0c,0x02,0x0e,0x00,0x00,0x06,0x04,
 0x3c,0x00,0x00,0x03,0x08,0xf0,0x00,0x80,0x01,0x10,0xc0,0x03,0xc3,0x00,0x20,
 0x00,0x0f,0x63,0x00,0x30,0x00,0x3e,0x30,0x00,0x1c,0x00,0xfc,0x18,0x00,0x07,
 0x00,0xe8,0x0f,0xc0,0x01,0x00,0x90,0x03,0x70,0x00,0x00,0x20,0x0c,0x1c,0x00,
 0x00,0x40,0x0c,0x07,0x00,0x00,0x80,0xc0,0x01,0x00,0x00,0x00,0x71,0x00,0x00,
 0x00,0x00,0x1e,0x00,0x00};
