#define noname_width 17
#define noname_height 15
static char noname_bits[] = {
 0xfe,0x7f,0x00,0xe1,0x89,0x00,0xe1,0x09,0x01,0xe1,0x09,0x01,0xe1,0x0f,0x01,
 0x01,0x00,0x01,0xf9,0x3f,0x01,0x05,0x40,0x01,0x05,0x40,0x01,0x05,0x40,0x01,
 0x05,0x40,0x01,0x05,0x40,0x01,0x05,0x40,0x01,0x05,0x40,0x01,0xfe,0xff,0x00};
