#define layout_roledex_width 14
#define layout_roledex_height 14
static unsigned char layout_roledex_bits[] = {
   0xff, 0x3f, 0x01, 0x38, 0x01, 0x38, 0x01, 0x38, 0x01, 0x38, 0x01, 0x38,
   0x01, 0x38, 0x01, 0x20, 0x01, 0x20, 0xff, 0x27, 0x0f, 0x20, 0x0f, 0x20,
   0x0f, 0x20, 0xff, 0x3f };
