#define noname_width 34
#define noname_height 31
static char noname_bits[] = {
 0x00,0x54,0xdd,0x01,0x00,0x00,0x01,0x00,0x02,0x00,0x00,0x00,0x00,0x04,0x00,
 0x80,0x00,0x00,0x04,0x00,0x00,0x00,0x00,0x1f,0x00,0x80,0x00,0x00,0x0e,0x00,
 0x00,0x00,0x00,0x04,0x00,0x00,0x00,0x00,0x00,0x00,0xfe,0x1f,0xf0,0xff,0x00,
 0x11,0x25,0x88,0x28,0x01,0x11,0x45,0x88,0x28,0x02,0x11,0x44,0x88,0x20,0x02,
 0xf1,0x47,0x88,0x3f,0x02,0x01,0x40,0x08,0x00,0x02,0x01,0x40,0x08,0x00,0x02,
 0xf9,0x4f,0xc8,0x7f,0x02,0x05,0x50,0x28,0x80,0x02,0x05,0x50,0x28,0x80,0x02,
 0x05,0x50,0x28,0x80,0x02,0x05,0x50,0x28,0x80,0x02,0x05,0x50,0x28,0x80,0x02,
 0x05,0x50,0x28,0x80,0x02,0xff,0x7f,0xf8,0xff,0x03,0x00,0x00,0x00,0x00,0x00,
 0x80,0x00,0x00,0x00,0x00,0xc0,0x01,0x00,0x04,0x00,0xe0,0x03,0x00,0x00,0x00,
 0x80,0x00,0x00,0x04,0x00,0x80,0x00,0x00,0x00,0x00,0x00,0x01,0x00,0x02,0x00,
 0x00,0xee,0xaa,0x00,0x00};
